<?xml version="1.0" standalone="no"?>
<!DOCTYPE svg PUBLIC "-//W3C//DTD SVG 20010904//EN"
 "http://www.w3.org/TR/2001/REC-SVG-20010904/DTD/svg10.dtd">
<svg version="1.0" xmlns="http://www.w3.org/2000/svg"
 width="512.000000pt" height="512.000000pt" viewBox="0 0 512.000000 512.000000"
 preserveAspectRatio="xMidYMid meet">
<metadata>
Created by potrace 1.14, written by Peter Selinger 2001-2017
</metadata>
<g transform="translate(0.000000,512.000000) scale(0.100000,-0.100000)"
fill="#000000" stroke="none">
<path d="M2090 4936 c-30 -18 -110 -64 -176 -103 l-122 -70 -128 73 c-71 40
-141 73 -155 74 -15 0 -37 -8 -50 -18 -13 -10 -40 -26 -60 -36 -76 -40 -72
-28 -73 -210 -1 -104 -5 -169 -12 -176 -24 -24 -269 -161 -297 -166 -17 -3
-69 -28 -116 -55 -47 -28 -95 -55 -106 -62 -177 -99 -412 -242 -422 -257 -8
-11 -50 -41 -93 -66 -43 -25 -93 -61 -109 -80 -28 -31 -31 -42 -32 -107 -4
-200 1 -222 57 -272 15 -14 24 -37 29 -75 8 -64 15 -115 20 -150 2 -14 11 -79
20 -145 8 -66 17 -131 19 -145 5 -30 15 -100 21 -155 3 -22 8 -58 11 -80 3
-22 8 -53 9 -70 2 -16 6 -43 9 -60 3 -16 10 -68 16 -115 6 -47 13 -96 15 -110
2 -14 6 -47 10 -75 3 -27 15 -111 25 -185 20 -139 25 -177 36 -268 13 -108 -7
-91 325 -284 167 -98 313 -182 324 -187 11 -5 78 -43 149 -85 70 -42 130 -76
132 -76 2 0 52 -29 111 -63 119 -70 355 -207 418 -243 44 -25 415 -239 570
-329 55 -32 118 -69 140 -81 22 -12 138 -78 258 -148 120 -69 220 -126 223
-126 4 0 393 224 624 360 102 60 818 476 895 520 53 31 140 82 143 85 4 4 27
179 37 280 4 39 9 77 10 85 2 8 6 49 10 90 4 41 8 82 10 90 3 16 14 111 20
175 8 78 15 141 21 185 3 25 7 65 9 90 3 25 7 65 11 90 10 82 13 105 19 165 5
56 7 74 19 165 3 19 8 67 11 105 10 95 10 95 35 138 20 34 23 52 22 158 0 73
-5 131 -12 150 -7 17 -36 48 -63 69 l-51 38 -2 69 c-2 87 -39 169 -104 233
-32 32 -194 130 -541 329 -272 157 -647 373 -834 481 -187 108 -360 208 -385
222 -25 14 -101 58 -170 98 -68 40 -140 82 -160 93 -19 11 -109 62 -200 115
-245 142 -246 142 -282 142 -19 0 -56 -14 -88 -34z"/>
</g>
</svg>
