<svg id="Layer_1" enable-background="new 0 0 2000 2000" viewBox="0 0 2000 2000" xmlns="http://www.w3.org/2000/svg"><g><g fill="#c4c4c4"><path d="m25.9 615.1c.8.2 1.6.3 2.4.3 4.7 0 8.9-3.1 10-7.7 2.4-9.5 5-19.2 7.8-28.6 1.6-5.3-1.6-10.8-7-12.3-5.5-1.5-11.2 1.5-12.8 6.8-2.9 9.7-5.6 19.7-8 29.5-1.3 5.3 2.1 10.7 7.6 12z"/><path d="m15.3 674.4c.5.1 1 .1 1.5.1 5 0 9.5-3.6 10.2-8.6 1.4-9.7 3.1-19.6 5-29.2 1.1-5.4-2.6-10.6-8.2-11.7-5.6-1-11 2.5-12 7.9-2 10-3.7 20.1-5.2 30.1-.8 5.5 3.1 10.6 8.7 11.4z"/><path d="m11.1 794.2h.5c5.7-.3 10.1-4.9 9.8-10.4-.5-9.8-.7-19.7-.7-29.5 0-5.5-4.6-10-10.3-10-5.7 0-10.3 4.5-10.3 10 0 10.1.3 20.4.8 30.5.1 5.2 4.7 9.4 10.2 9.4z"/><path d="m10.5 734.2h.5c5.5 0 10-4.2 10.3-9.5.5-9.8 1.2-19.7 2.1-29.5.5-5.5-3.6-10.3-9.3-10.9-5.6-.5-10.7 3.5-11.2 9-1 10.1-1.7 20.3-2.2 30.4-.3 5.5 4.1 10.2 9.8 10.5z"/><path d="m116.7 404c-4.9-2.9-11.2-1.4-14.2 3.3-5.4 8.6-10.8 17.4-15.8 26.2-2.8 4.8-1 10.9 4 13.6 1.6.9 3.3 1.3 5 1.3 3.6 0 7.1-1.9 9-5.1 4.9-8.5 10.1-17.1 15.4-25.5 3-4.8 1.5-10.9-3.4-13.8z"/><path d="m42.2 557.2c1.1.4 2.2.5 3.3.5 4.3 0 8.3-2.6 9.7-6.8 3.3-9.2 6.8-18.6 10.5-27.7 2.1-5.1-.5-10.9-5.8-12.9s-11.3.5-13.3 5.6c-3.8 9.4-7.5 19.1-10.8 28.6-1.8 5.2 1.1 10.9 6.4 12.7z"/><path d="m64 501c1.4.6 2.8.9 4.2.9 3.9 0 7.7-2.2 9.4-5.9 4.1-8.9 8.5-17.9 13-26.7 2.5-4.9.5-10.9-4.6-13.4s-11.3-.5-13.8 4.5c-4.7 9-9.2 18.3-13.4 27.5-2.4 5 0 10.9 5.2 13.1z"/><path d="m18.4 853.8c5.6-.8 9.5-5.8 8.7-11.3-1.4-9.7-2.7-19.6-3.6-29.3-.5-5.5-5.6-9.5-11.2-9-5.7.5-9.8 5.4-9.3 10.9 1 10.1 2.3 20.2 3.7 30.3.7 5 5.1 8.6 10.2 8.6.5-.1 1-.1 1.5-.2z"/><path d="m105.4 1064.9c-4.9-8.6-9.8-17.4-14.3-26.2-2.5-4.9-8.7-6.9-13.8-4.4s-7.1 8.5-4.6 13.4c4.7 9 9.6 18.1 14.7 26.9 1.9 3.3 5.4 5.1 9 5.1 1.7 0 3.4-.4 5-1.3 5-2.6 6.8-8.7 4-13.5z"/><path d="m128.1 397.2c3.3 0 6.6-1.5 8.6-4.4 5.6-8.1 11.5-16.3 17.6-24.2 3.4-4.4 2.4-10.7-2.2-13.9-4.6-3.3-11-2.3-14.4 2.1-6.2 8.2-12.3 16.5-18.1 24.9-3.2 4.6-1.9 10.8 2.8 13.8 1.7 1.1 3.7 1.7 5.7 1.7z"/><path d="m78 1012c-4.1-9-8.1-18.1-11.8-27.2-2.1-5.1-8.1-7.6-13.4-5.6s-7.9 7.8-5.8 12.9c3.8 9.4 7.9 18.8 12.2 28.1 1.7 3.7 5.5 5.9 9.4 5.9 1.4 0 2.8-.3 4.2-.9 5.2-2.2 7.6-8.1 5.2-13.2z"/><path d="m31.1 912.5c5.5-1.3 8.9-6.7 7.6-12-2.4-9.5-4.6-19.2-6.5-28.9-1.1-5.4-6.5-9-12.1-7.9-5.6 1-9.2 6.3-8.2 11.7 2 9.9 4.2 19.9 6.7 29.8 1.1 4.6 5.4 7.6 10 7.6.8 0 1.6-.1 2.5-.3z"/><path d="m55.7 957.1c-3.3-9.3-6.4-18.8-9.2-28.1-1.6-5.3-7.3-8.3-12.8-6.8s-8.6 7.1-7 12.4c2.9 9.7 6.1 19.4 9.5 29 1.5 4.1 5.5 6.7 9.7 6.7 1.1 0 2.2-.2 3.3-.5 5.4-1.8 8.3-7.5 6.5-12.7z"/><path d="m137.5 1115.4c-5.7-8.2-11.3-16.6-16.6-24.9-3-4.7-9.3-6.2-14.2-3.3-4.8 2.9-6.4 9-3.4 13.7 5.5 8.6 11.2 17.2 17.1 25.6 2 2.9 5.2 4.4 8.5 4.4 2 0 4-.6 5.8-1.7 4.7-3 6-9.2 2.8-13.8z"/><g><path d="m158.3 346.6c1.9 1.5 4.2 2.2 6.4 2.2 3 0 6-1.3 8.1-3.8 6.3-7.6 12.9-15.3 19.5-22.8 3.7-4.2 3.2-10.5-1.1-14.1s-10.8-3.1-14.5 1c-6.8 7.7-13.6 15.5-20.1 23.4-3.5 4.4-2.7 10.7 1.7 14.1z"/><path d="m193.4 1185.9c-3.7-4.2-10.2-4.6-14.5-1s-4.8 9.9-1 14.1c6.8 7.6 13.9 15.2 21 22.6 2 2.1 4.8 3.1 7.5 3.1 2.5 0 5.1-.9 7-2.7 4.1-3.8 4.4-10.1.5-14.1-7-7.2-13.9-14.6-20.5-22z"/><path d="m173.8 1163.2c-6.4-7.7-12.6-15.6-18.6-23.5-3.4-4.4-9.8-5.4-14.4-2.1s-5.6 9.5-2.2 13.9c6.2 8.1 12.6 16.2 19.1 24.1 2 2.5 5 3.7 8 3.7 2.3 0 4.5-.7 6.4-2.2 4.5-3.4 5.3-9.6 1.7-13.9z"/><path d="m1714.3 415.9c5.4 8.4 10.6 17 15.5 25.6 1.9 3.3 5.4 5.1 9 5.1 1.7 0 3.4-.4 5-1.3 5-2.7 6.7-8.8 4-13.6-5.1-8.8-10.4-17.6-15.9-26.3-3-4.7-9.3-6.1-14.2-3.3-4.9 3-6.4 9.1-3.4 13.8z"/><path d="m1744.2 467.6c4.6 8.8 9 17.8 13.1 26.7 1.7 3.7 5.5 5.9 9.4 5.9 1.4 0 2.8-.3 4.2-.9 5.2-2.3 7.5-8.2 5.2-13.2-4.3-9.2-8.8-18.5-13.5-27.5-2.6-4.9-8.8-6.9-13.8-4.4-5.1 2.5-7.2 8.5-4.6 13.4z"/><path d="m1769.1 521.6c3.7 9.1 7.3 18.4 10.6 27.7 1.5 4.1 5.5 6.7 9.7 6.7 1.1 0 2.2-.2 3.3-.5 5.4-1.8 8.2-7.5 6.4-12.7-3.4-9.5-7-19.2-10.9-28.6-2.1-5.1-8.1-7.6-13.4-5.6-5.2 2-7.8 7.8-5.7 13z"/><path d="m1661.3 343.3c2 2.5 5 3.7 8 3.7 2.3 0 4.5-.7 6.4-2.2 4.4-3.4 5.1-9.7 1.6-14-6.5-7.9-13.3-15.7-20.1-23.3-3.7-4.2-10.2-4.6-14.5-1s-4.7 9.9-1 14.1c6.7 7.4 13.3 15 19.6 22.7z"/><path d="m1680 366.7c6.1 7.9 12 16.1 17.7 24.2 2 2.9 5.2 4.4 8.5 4.4 2 0 4-.6 5.8-1.7 4.7-3.1 5.9-9.3 2.8-13.8-5.8-8.4-12-16.7-18.2-24.9-3.4-4.4-9.8-5.4-14.4-2.1s-5.6 9.5-2.2 13.9z"/><path d="m1812 693.1c1 9.7 1.7 19.6 2.2 29.5.3 5.3 4.8 9.5 10.3 9.5h.5c5.7-.3 10.1-4.9 9.8-10.5-.5-10.1-1.3-20.3-2.3-30.4-.5-5.5-5.6-9.5-11.2-9-5.7.6-9.8 5.4-9.3 10.9z"/><path d="m1811.4 623c-5.6 1-9.2 6.3-8.2 11.7 1.9 9.6 3.6 19.4 5.1 29.1.7 5 5.1 8.5 10.2 8.5.5 0 1 0 1.5-.1 5.6-.8 9.5-5.8 8.7-11.3-1.5-10-3.3-20.1-5.2-30-1.1-5.4-6.5-8.9-12.1-7.9z"/><path d="m1795.9 565c-5.5 1.5-8.6 7.1-7 12.4 2.8 9.4 5.5 19 7.9 28.5 1.1 4.6 5.4 7.6 10 7.6.8 0 1.6-.1 2.4-.3 5.5-1.3 8.9-6.7 7.6-12-2.5-9.8-5.2-19.7-8.1-29.4-1.6-5.3-7.3-8.4-12.8-6.8z"/><path d="m290 204.3c-4.5 3.4-5.2 9.7-1.7 14 2 2.5 5 3.8 8.1 3.8 2.2 0 4.5-.7 6.4-2.2 7.2-5.6 14.7-11.1 22.1-16.5h-33.8c-.4.4-.8.6-1.1.9z"/><path d="m219.6 264.8c-7.4 7.1-14.8 14.5-21.9 21.8-3.9 4-3.7 10.3.5 14.1 2 1.8 4.5 2.7 7 2.7 2.8 0 5.5-1.1 7.5-3.2 6.9-7.1 14.1-14.3 21.3-21.3 4-3.9 4.1-10.2.1-14.1s-10.5-3.9-14.5 0z"/><path d="m265.8 223.6c-7.9 6.6-15.8 13.4-23.5 20.2-4.2 3.7-4.5 10-.6 14.1 2 2.1 4.8 3.2 7.6 3.2 2.5 0 5-.9 7-2.6 7.5-6.6 15.2-13.3 22.9-19.7 4.3-3.6 4.8-9.9 1.1-14.1-3.7-4.1-10.2-4.6-14.5-1.1z"/><path d="m1577.6 256.9c2 1.8 4.5 2.6 6.9 2.6 2.8 0 5.6-1.1 7.6-3.2 3.8-4.1 3.6-10.4-.6-14.1-7.7-6.8-15.6-13.5-23.5-20.1-4.3-3.6-10.8-3.1-14.5 1.1s-3.2 10.5 1.2 14.1c7.7 6.4 15.5 13 22.9 19.6z"/><path d="m1621.2 298.6c2 2.1 4.8 3.1 7.5 3.1 2.5 0 5.1-.9 7-2.7 4.1-3.8 4.3-10.1.5-14.1-7.1-7.3-14.5-14.6-21.9-21.7-4.1-3.9-10.6-3.8-14.6.1s-3.9 10.2.1 14.1c7.3 6.9 14.5 14 21.4 21.2z"/><path d="m514.6 1408.4c-9.4-3.9-18.8-7.9-28-12.1-5.2-2.3-11.3-.1-13.7 4.9s-.1 10.9 5 13.2c9.4 4.2 19.1 8.4 28.6 12.3 1.3.5 2.7.8 4 .8 4 0 7.8-2.3 9.5-6.1 2.3-5-.1-10.9-5.4-13z"/><path d="m1555.9 1268.6c-7.7 6.4-15.7 12.7-23.7 18.8-4.5 3.4-5.2 9.7-1.7 14 2 2.5 5 3.8 8.1 3.8 2.2 0 4.5-.7 6.4-2.2 8.2-6.3 16.3-12.8 24.2-19.3 4.3-3.6 4.8-9.9 1.1-14.1-3.6-4-10.1-4.5-14.4-1z"/><path d="m1601 1228.5c-7.2 6.9-14.6 13.8-22.2 20.5-4.2 3.7-4.5 10-.6 14.1 2 2.1 4.8 3.2 7.6 3.2 2.5 0 5-.9 7-2.6 7.7-6.9 15.4-13.9 22.7-21 4-3.9 4.1-10.2.1-14.1s-10.6-4-14.6-.1z"/><path d="m1642.8 1185.3c-6.6 7.4-13.5 14.8-20.5 22-3.9 4-3.7 10.3.5 14.1 2 1.8 4.5 2.7 7 2.7 2.8 0 5.5-1.1 7.5-3.2 7.2-7.4 14.2-15 21-22.6 3.7-4.2 3.3-10.5-1-14.1s-10.8-3.1-14.5 1.1z"/><path d="m1507.9 1305.5c-8.2 5.8-16.6 11.6-25 17.2-4.7 3.1-5.9 9.3-2.7 13.9 2 2.8 5.2 4.3 8.5 4.3 2 0 4-.6 5.8-1.7 8.6-5.7 17.2-11.6 25.6-17.6 4.6-3.3 5.6-9.5 2.2-13.9-3.3-4.5-9.8-5.5-14.4-2.2z"/><path d="m1457.4 1339c-8.6 5.3-17.4 10.5-26.1 15.5-4.9 2.8-6.5 8.9-3.6 13.7 1.9 3.2 5.4 4.9 8.9 4.9 1.8 0 3.6-.4 5.2-1.4 9-5.1 18-10.5 26.7-15.9 4.8-3 6.2-9.1 3.2-13.8-3.2-4.5-9.5-5.9-14.3-3z"/><path d="m1349.8 1395.9c-9.2 4.1-18.6 8.2-28 12.1-5.2 2.2-7.7 8-5.4 13.1 1.7 3.8 5.5 6.1 9.5 6.1 1.3 0 2.7-.3 4-.8 9.6-4 19.2-8.1 28.6-12.3 5.2-2.3 7.4-8.2 5-13.2-2.4-5.1-8.5-7.3-13.7-5z"/><path d="m1293.4 1419.2c-9.4 3.6-19.1 7-28.8 10.4-5.4 1.8-8.2 7.5-6.3 12.7 1.5 4.1 5.5 6.6 9.7 6.6 1.1 0 2.3-.2 3.4-.6 9.8-3.4 19.7-6.9 29.4-10.6 5.3-2 7.9-7.8 5.9-12.9-2-5-8-7.6-13.3-5.6z"/><path d="m1404.6 1369.2c-8.9 4.7-18.1 9.4-27.2 13.8-5.1 2.5-7.1 8.5-4.6 13.4 1.8 3.5 5.4 5.5 9.2 5.5 1.6 0 3.1-.3 4.6-1.1 9.3-4.5 18.6-9.3 27.7-14.1 5-2.6 6.8-8.7 4.1-13.5-2.6-4.9-8.8-6.6-13.8-4z"/><path d="m1695.4 1136.8c-4.6-3.3-11-2.3-14.4 2.1-6 7.9-12.3 15.8-18.6 23.5-3.6 4.3-2.8 10.6 1.6 14 1.9 1.5 4.2 2.2 6.4 2.2 3 0 6-1.3 8.1-3.7 6.5-7.9 13-16 19.1-24.1 3.3-4.4 2.3-10.7-2.2-14z"/><path d="m1729.3 1086.6c-4.9-2.9-11.2-1.4-14.2 3.3-5.3 8.4-10.9 16.7-16.5 24.9-3.2 4.6-1.9 10.8 2.8 13.8 1.8 1.1 3.8 1.7 5.7 1.7 3.3 0 6.6-1.5 8.6-4.4 5.8-8.4 11.5-17 17-25.6 2.9-4.7 1.4-10.8-3.4-13.7z"/><path d="m1835.6 752.1c0-5.5-4.6-10-10.3-10s-10.3 4.5-10.3 10v1.4c0 9.8-.2 19.7-.7 29.5-.3 5.5 4.1 10.2 9.8 10.4h.5c5.5 0 10-4.2 10.3-9.5.5-10.1.7-20.3.7-30.5z"/><path d="m1815.6 863.1c-5.6-1-11 2.5-12 7.9-1.9 9.6-4.1 19.4-6.4 28.9-1.3 5.4 2.1 10.7 7.6 12 .8.2 1.6.3 2.4.3 4.7 0 8.9-3.1 10-7.6 2.4-9.8 4.7-19.9 6.6-29.8 1-5.5-2.6-10.7-8.2-11.7z"/><path d="m1823.4 803.5c-5.7-.5-10.7 3.5-11.2 9-1 9.8-2.2 19.6-3.6 29.3-.8 5.5 3.1 10.5 8.7 11.3.5.1 1 .1 1.5.1 5 0 9.5-3.6 10.2-8.6 1.5-10 2.7-20.2 3.7-30.3.5-5.4-3.7-10.3-9.3-10.8z"/><path d="m1758.5 1033.9c-5.1-2.5-11.3-.5-13.8 4.5-4.5 8.7-9.3 17.5-14.2 26.1-2.8 4.8-1 10.9 4 13.6 1.6.9 3.3 1.3 5 1.3 3.6 0 7.1-1.8 9-5.1 5.1-8.8 10-17.9 14.7-26.9 2.5-5.1.4-11.1-4.7-13.5z"/><path d="m1802 921.7c-5.5-1.5-11.2 1.5-12.8 6.8-2.8 9.4-5.9 18.9-9.2 28.2-1.8 5.2 1 10.9 6.4 12.7 1.1.4 2.2.5 3.3.5 4.3 0 8.3-2.6 9.7-6.8 3.4-9.6 6.6-19.3 9.5-29.1 1.7-5.2-1.4-10.8-6.9-12.3z"/><path d="m1782.9 978.8c-5.3-2-11.3.5-13.4 5.6-3.7 9.1-7.7 18.3-11.8 27.2-2.3 5 0 10.9 5.2 13.2 1.4.6 2.8.9 4.2.9 3.9 0 7.7-2.2 9.4-5.9 4.3-9.2 8.4-18.7 12.2-28.1 2.1-5.1-.5-10.9-5.8-12.9z"/><path d="m1176.6 1455.4c-9.9 2.4-19.9 4.7-29.9 6.9-5.6 1.2-9.1 6.5-7.8 11.9 1.1 4.6 5.3 7.8 10 7.8.7 0 1.5-.1 2.2-.2 10.2-2.2 20.4-4.5 30.5-7 5.5-1.4 8.8-6.8 7.5-12.1-1.4-5.4-7-8.6-12.5-7.3z"/><path d="m872.2 1485.4c-10.1-.4-20.4-1-30.7-1.7-5.7-.4-10.6 3.8-11 9.2-.4 5.5 3.9 10.3 9.5 10.7 10.4.7 20.9 1.3 31.2 1.7h.4c5.5 0 10-4.2 10.3-9.6.4-5.4-4-10-9.7-10.3z"/><path d="m933.6 1486.3c-10.2.1-20.5.2-30.7 0-5.6 0-10.4 4.3-10.4 9.8-.1 5.5 4.5 10 10.2 10.1 5 .1 10.1.1 15.2.1 5.4 0 10.8 0 16.1-.1 5.7-.1 10.2-4.6 10.1-10.1s-4.8-10-10.5-9.8z"/><path d="m811 1481.2c-10.2-1-20.4-2.1-30.5-3.4-5.6-.7-10.8 3.1-11.5 8.6s3.2 10.5 8.9 11.2c10.3 1.3 20.7 2.5 31.1 3.5h1c5.2 0 9.7-3.8 10.2-9 .6-5.4-3.6-10.3-9.2-10.9z"/><path d="m689.8 1462.5c-9.9-2.1-20-4.4-29.9-6.9-5.5-1.3-11.1 1.9-12.5 7.2s1.9 10.8 7.5 12.1c10.1 2.5 20.3 4.8 30.5 7 .7.2 1.5.2 2.2.2 4.7 0 9-3.2 10-7.8 1.2-5.3-2.3-10.6-7.8-11.8z"/><path d="m750.1 1473.6c-10.1-1.6-20.2-3.3-30.2-5.1-5.6-1-11 2.5-12 7.9-1.1 5.4 2.6 10.6 8.2 11.7 10.2 1.9 20.6 3.6 30.8 5.2.6.1 1.1.1 1.6.1 5 0 9.3-3.5 10.2-8.4.8-5.4-3-10.5-8.6-11.4z"/><path d="m1116.7 1468.3c-10 1.8-20.1 3.6-30.2 5.1-5.6.9-9.4 6-8.5 11.4.8 4.9 5.2 8.4 10.2 8.4.5 0 1.1 0 1.6-.1 10.3-1.6 20.7-3.4 30.8-5.2 5.6-1 9.3-6.3 8.2-11.7-1.2-5.4-6.6-8.9-12.1-7.9z"/><path d="m1056 1477.7c-10.1 1.3-20.4 2.4-30.5 3.4-5.7.6-9.8 5.4-9.2 10.9.5 5.1 5 9 10.2 9 .3 0 .7 0 1-.1 10.3-1 20.8-2.2 31.1-3.5 5.6-.7 9.6-5.7 8.9-11.2-.7-5.3-5.8-9.2-11.5-8.5z"/><path d="m995 1483.7c-10.1.7-20.4 1.3-30.7 1.7-5.7.2-10.1 4.9-9.8 10.4.2 5.4 4.8 9.5 10.3 9.5h.5c10.4-.4 20.9-1 31.2-1.7 5.7-.4 9.9-5.2 9.5-10.7s-5.3-9.6-11-9.2z"/><path d="m1235.6 1439.1c-9.7 3-19.6 5.9-29.4 8.6-5.5 1.5-8.6 7-7.1 12.3 1.3 4.4 5.4 7.2 9.9 7.2.9 0 1.9-.1 2.8-.4 10-2.8 20.1-5.7 30-8.8 5.4-1.7 8.4-7.3 6.7-12.5s-7.5-8.1-12.9-6.4z"/><path d="m304.1 1288c-8-6.1-15.9-12.5-23.7-18.8-4.3-3.6-10.8-3.1-14.5 1.1s-3.2 10.5 1.2 14.1c7.9 6.5 16.1 13 24.2 19.3 1.9 1.5 4.1 2.2 6.4 2.2 3 0 6-1.3 8.1-3.8 3.5-4.4 2.7-10.7-1.7-14.1z"/><path d="m235.3 1229.1c-4-3.9-10.6-3.8-14.6.1s-4 10.2.1 14.1c7.4 7.1 15 14.1 22.7 20.9 2 1.8 4.5 2.6 7 2.6 2.8 0 5.6-1.1 7.6-3.2 3.8-4.1 3.6-10.4-.6-14.1-7.6-6.6-15-13.5-22.2-20.4z"/><path d="m353.4 1323.2c-8.4-5.6-16.8-11.4-25-17.2-4.6-3.3-11-2.3-14.4 2.1s-2.4 10.7 2.2 13.9c8.3 5.9 16.9 11.9 25.6 17.6 1.8 1.2 3.8 1.7 5.8 1.7 3.3 0 6.5-1.5 8.5-4.3 3.2-4.5 2-10.7-2.7-13.8z"/><path d="m571.8 1429.9c-9.6-3.3-19.3-6.8-28.8-10.3-5.3-2-11.3.6-13.3 5.7-2.1 5.1.6 10.9 5.9 12.9 9.7 3.6 19.6 7.2 29.4 10.5 1.1.4 2.3.6 3.4.6 4.2 0 8.2-2.6 9.7-6.7 1.9-5.2-.9-10.9-6.3-12.7z"/><path d="m630.3 1447.9c-9.8-2.7-19.7-5.6-29.4-8.6-5.4-1.7-11.2 1.2-12.9 6.5-1.7 5.2 1.3 10.9 6.7 12.5 9.9 3.1 20 6 30 8.8.9.3 1.9.4 2.8.4 4.5 0 8.6-2.9 9.9-7.2 1.5-5.3-1.6-10.9-7.1-12.4z"/><path d="m405.1 1355c-8.8-5-17.6-10.2-26.2-15.5-4.8-2.9-11.2-1.6-14.2 3.1-3 4.6-1.6 10.8 3.2 13.8 8.7 5.4 17.7 10.7 26.7 15.8 1.6.9 3.4 1.4 5.2 1.4 3.5 0 7-1.8 8.9-4.9 3-4.8 1.3-10.9-3.6-13.7z"/><path d="m459 1383.4c-9.1-4.4-18.3-9.1-27.2-13.8-5-2.6-11.2-.8-14 4-2.7 4.8-.9 10.9 4.1 13.5 9.1 4.8 18.4 9.5 27.8 14.1 1.5.7 3.1 1.1 4.6 1.1 3.8 0 7.4-2 9.2-5.5 2.6-4.9.6-10.9-4.5-13.4z"/></g></g><path d="m799.3 398.4c8.9-41.6-8.9-83.3-22.2-108-2.7-5-4.3-10.7-4.5-16.4-3.5-98.1-15.3-89.8-45.1-111.1-5.4-3.9-11.7-6.5-18.3-7-69.4-5.7-83 49.9-88.5 73.6-.5 2.2-.7 4.5-.7 6.7-.7 20.1-17.1 29.3-34.7 35.7-22.8 8.3-39.4 28-44.4 51.7-2.6 12.1-5.9 20.6-9.3 26.6-6.8 11.9-6.4 26.5 1 38l6.4 10.1"/><path d="m508.8 1503.6c8.1 3.2 15.1 8.2 20.4 15.6 12.6 17.7 9 41.8 3.8 62.9-17.8 71.3-48.9 139.2-61.3 211.6-3 17.5-5.3 36.1-16.5 49.8-21.4 26.1-82.5 3.6-109.8-1.8-2.7-.5-5.7-1.3-6.9-3.8-.7-1.3-.6-2.9-.5-4.4 3.8-91.6 1.2-190.5 33.3-277.1 3.9-10.6 8-21.4 15.3-29.9 14.5-17 38.5-21.6 60.6-25 20.1-3.3 43.4-5.1 61.6 2.1z" fill="#ffa08c"/><path d="m603.2 1929.3h-136.6c-29.7-1-59.3-1.5-89 0h-31.8c-4.5-1-8.5-2.9-11.7-6.3-7.9-8.5-6.6-105.9 1.6-105 47.7 5.8 80.7 7.7 125.1 7.9 2.5 0 5 .9 6.8 2.6 2.2 2.1 2.6 5.5 3.1 8.5 4 23 25.3 39.5 47.3 47.4s45.8 9.4 68.3 15.8c20 5.7 35.5 20.9 16.9 29.1z" fill="#3a4146"/><path d="m1104.9 328.6c-3.9 18.2-7.8 36.4-11.6 54.6-.4 1.9-.8 4-.4 5.9.9 4.2 5.2 6.7 9.3 7.7 13.1 3.3 27.5-3 35.6-13.9 8-10.9 10.1-25.4 7.4-38.7-4.8-24.5-31.2-58.3-40.3-15.6z" fill="#ffa08c"/><path d="m882.5 1512.7c8.4 2.3 15.9 6.5 22 13.3 14.4 16.2 13.5 40.6 10.6 62.1-9.9 72.8-33.4 143.7-37.8 217-1.1 17.7-1.3 36.5-11 51.3-18.4 28.3-81.6 12.6-109.3 10.2-2.7-.2-5.8-.7-7.2-3-.8-1.2-.9-2.8-1-4.3-6.3-91.4-19.7-189.5 2.8-279.1 2.7-10.9 5.6-22.1 12-31.4 12.6-18.4 35.9-25.6 57.5-31.5 19.6-5.4 42.6-9.8 61.4-4.6z" fill="#ffa08c"/><path d="m746.8 1729.9c-24.6 2-43.6 3.2-43.5 2.5 9.7-103.2 13.6-207 11.7-310.6-1.3-72 7.8-144.6 2.6-216.7-5.8-80.6-4.5-164.5-15.9-244.4-9.7-67.7-15.8-132-14-201.7 1-41 6.1-86.7 37.3-113.4 36.5-31.2 77.7-33.8 108.5 5.5 32.3 41.2 37.3 90 47.2 139 27.9 138.8 48 278.9 68 419 14.4 101 28.9 203 21.2 304.7-2.7 35-7.9 69.7-14.4 104.1-6.4 34-11.8 66.4-21.3 99.5-33.4 1.1-66.8 1.4-99.9 5.1-28.6 3.1-58.8 7.4-87.5 7.4z" fill="#003567"/><path d="m325.9 1686.5c-3.7-.6-7.2-1.8-9.8-4.4-4.5-4.6-4.3-11.8-3.9-18.1 15.9-216.7 107.7-425.9 172.3-632.7 27.8-89.1 44.4-211.4 98-288.7 42.5-61.4 102.6-23.9 123.8 34.5 34.5 94.8 26.7 199.8 12.5 297.7-31.2 215.2-103.6 421-132.4 638.2-.4 2.8-.9 5.9-3 7.8.1-.1-62.7-13.9-70.5-14.7-60.8-6.1-121.5-12.6-182.3-18.9-1.4-.2-3.1-.4-4.7-.7z" fill="#003567"/><path d="m750.1 452.4c3.1-31.3 8.9-73.2 49.2-72.5 17.6.3 33.9 9 48.6 18.8 28.4 19 54.2 42 75.4 68.8 20.8 26.2 29.9 56.9 46.6 84.2 21.2-26.4 37.2-58.3 55.1-87 15.8-23 31.7-45.8 47.9-68.5 5.8-8.1 11.7-16.3 19.8-22.1 17.4-12.5 58.7-16.1 78.2-6.7 5.3 2.5 8.9 7.5 11.9 12.5 8.1 13.6 13.3 28.9 15.1 44.6 1.2 10.4 8.7 26.9-2.9 33.1-3.6 2-7.8 2.6-11.9 3.2-12.2 1.6-39.9 3.7-49.4 12.1-14 12.5-19.7 51.2-25.8 68.7-17.5 49.5-34.9 98.9-52.4 148.4-13.4 38.1-40.6 77.8-86.6 75.9-22.8-.9-39.4-14.2-55.2-29.3-46.2-44.1-86.8-94-120.7-148.2-19.8-31.7-37.6-65.7-42.6-102.8-1.5-10.8-1.4-22-.3-33.2z" fill="#ffa08c"/><g><path d="m728.9 345.9c-.1.8 0 1.5.2 2.3.4-.2.9-.4 1.3-.6z" fill="#5c2a9a"/><path d="m730.1 346.7c36 2.4 71.6 11.7 103.3 28.3 54.3 28.3 97.2 75.2 128 127.4 4.3 7.4-111.1 100.7-122.4 110.2 1.8-1.5-52.9-113.7-57.5-124.8-4-9.7-8.8-19-13.8-28.2-4.4-8-8.5-17.5-14.6-24.3-10.9-12-20.9-24.6-35.7-32.1-14.2-7.2-30.1-9.9-45.4-14-20.5-5.5-40.8-13.6-62.1-13.5-6.1 0-13.1.4-17.5-3.9 15.5-7.2 31.7-12.9 48.2-17 28.8-7.4 59.3-10.1 89.5-8.1z" fill="#ee984f"/></g><path d="m894.6 762.7c1.6 16.4 3.1 32.7 4.8 48.8-61.1-1.5-131.4-6.2-200.6-4.4-51.7 1.4-110.6-3.3-160.9-15.1 9.7-22.1 10.8-50.4 13.5-74.3 3.1-27.4 5.9-54.8 8.7-82.2 6.3-62.9 7.3-128.8 33.3-187.5 12.2-27.5 24.2-82.6 54-91.7 54.4-16.6 78.9-11.8 111.6 4.8 62 31.7 77 113.5 97 174.9 23.4 71.6 31.2 150.4 38.6 226.7z" fill="#ee984f"/><path d="m772.6 1924.8c-3.7.1-7.4.2-11.2.3-2.2.1-4.6.1-6.6-.9-2.8-1.4-4.3-4.5-5.4-7.4-2.6-6.8-10.8-88.2-3.4-88.1 48 .6 81.1-1.1 125.2-5.8 2.5-.3 5.1.4 7.1 1.9 2.4 1.9 3.1 5.2 4 8.1 6.5 22.5 29.4 36.5 52.2 41.9s46.6 4.3 69.6 8.2c20.7 3.5 47.8 29.6 16.4 42.5-8.7 3.6-18.5 3.1-27.9 2.6-73.2-4.1-146.6-5.1-220-3.3z" fill="#3a4146"/><path d="m738 313.1c-.9.6-1.8 1.2-2.3 2-4.9 7.5-1.1 22.6-.1 30.7.2 1.6.5 3.4 1.3 4.8 1.7 2.7 5.1 3.6 8.2 4.3.8.2 1.7.4 2.5.6-10.4 15.7-25 27.1-45 28.6-20.8 1.6-40.4-5-56.1-17.7 6.3-5.8 10.4-13.8 12.4-22.2 2.2-9.4 2.3-19.1 2.4-28.7.1-22-2.4-46.1 2.4-67.5 2.2-9.7 1.9-19.4 5.4-29 3.3-9.1 8.7-17.4 16-23.7 18.6-15.9 49.6-11 63.9 8.4 4.5 6.2 7.3 13.5 9.3 20.8 3.7 13.6 5.1 28 3.7 42.1-1.9 17.7-8.6 36-24 46.5z" fill="#ffa08c"/><path d="m693.4 155.1c-14.1 1.1-27.7 6.1-33.6 16.5-4.5 7.9-3.4 17.2-8.5 25.6-6.7 11-11.3 20.2-10.6 33.7.5 9.4 5.6 32.8 18.1 33.6 9.1.6 13.7-6.9 16.6-14.4 1.9-5.1 3.7-9.9 4.4-15.2.4-2.9.9-5.6.9-8.6 0-1.6.6-6.8-.4-8.1 2.7 3.4 5.3 6.8 8 10.3.4.5.8 1.1 1.4 1.4.7.4 1.5.4 2.3.3 20.4 0 39.7-4.4 59.9-5.2 6.2-.2 25.5-1.1 23.3-10.8-2.9-12.3-12-22-20.7-31.1-8.4-8.8-17.1-17.7-28-23-8.2-4-20.9-6-33.1-5z"/><path d="m668.2 274.1c-7-3.5-11.1-14.1-11.6-21.3-.2-2.8-.1-5.6 1-8.2 2.2-5.1 8.2-8.1 13.7-7.4 10.8 1.4 13.4 12 14.7 20.9.3 1.8.4 3.6-.1 5.4-1.9 6.9-10.6 14.1-17.7 10.6z" fill="#ffa08c"/><path d="m609.3 823.2c-3.3 12.6-12 23.6-23.3 29.9-11.4 6.3-25.3 7.7-37.7 3.9" style="fill:none;stroke:#000;stroke-width:5.713;stroke-linecap:round;stroke-linejoin:round;stroke-miterlimit:10"/><g><path d="m470.4 738.9c-9.5-5.3-19-11-29-16.9-16.9-10.8-34.1-19.5-52.2-28.2 40-25.8 76.1-57.6 106.7-94.1 19.8-23.6 37.8-50.7 40-81.4s-17-64.6-47.4-69.1c-22-3.3-48-.7-66.6 11.7-73.7 49.4-134.7 120.1-189.4 190-12.8 16.3-25.5 34.5-26.3 55.2-1.9 47.9 50.5 69.8 87.4 84.8 58.6 23.8 120.5 39.1 183.4 45.4 7.1.7 14.4 1.3 21.2 3.6 7.2 2.4 13.7 6.4 20.6 9.6 11.1 5.1 23 7.9 34.9 10.3 7.3 1.5 23.6 8.4 30 1.5 2.4-2.6.2-6.7-1.9-9.4 6 2.9 13.2 3.4 19.6 1.5 3.3-1 6.6-2.8 8.2-6 1.5-3.1.3-7.6-3-8.7 3.7-.3 6.5 1.9 10.3 1.3 3-.5 6-2.3 7.3-5 1.9-3.8.4-8.5-2.5-11.6s-6.8-4.9-10.6-6.7c-10.8-4.9-28.3-9.1-35.8-18.5 10.7 2.6 21.1 6.5 31 11.3 5.8 2.8 16.6 10.8 22.2 2.9 1.8-2.6 1.6-6.3.1-9.1s-4-5-6.5-6.9c-21.8-17-49.1-24.5-75.7-30.2-27.2-5.5-51.7-13.8-76-27.3z" fill="#ffa08c"/></g><path d="m535.4 592.7c-9.9 8.4-20.3 16.2-31.3 23.1-21.1-22.8-45.6-48.1-60.5-75.6-5.3-9.9-32-76.4-42.1-76.4 54.5-38.1 146.7-91 224.9-103.9 15.5-2.6 6.6 9.8 21.6 14.4 11.2 3.5-1.6 9.3 6 18.3 16.1 19.1 25.7 43.4 27.6 68.3 2.3 28.9-11.1 48-22.1 73.7-10.5 24.5-25.2 47.5-34.6 72.3-13.6 35.7-11.5 86.2-40.7 112.5-10.4 9.4-21.5 18.1-33.1 26 5.2-3.5-5.3-78.9-5.6-88.9-.6-21.7-6.4-49.7-2.3-70.7-2.6 2.3-5.1 4.6-7.8 6.9z" fill="#ee984f"/><g><path d="m2000 689.3c0 35.9-9.4 69.6-25.9 98.8-22.4 39.8-57.9 71.2-100.8 88.4-8 3.2-16.1 5.9-24.6 8-16.1 4.1-32.9 6.3-50.3 6.3-2.2 0-4.4 0-6.5-.1-40.7-1.3-78.4-14.7-109.6-36.7-6.6-4.7-13-9.8-19-15.2-40.8-36.9-66.4-90.2-66.4-149.5 0-111.3 90.2-201.5 201.5-201.5s201.6 90.2 201.6 201.5z" fill="#e4ecf9"/><g><ellipse cx="1772.6" cy="530.4" fill="#ffa08c" rx="69.9" ry="81.7"/><path d="m1824.5 705.5-99.3-3.9-12.5-136.2 62.1 11.7z" fill="#ffa08c"/><path d="m1712.7 575.1s4-46.7 43.9-66.1c39.9-19.5 43.9-42.8 43.9-42.8l40.4 54.5s29.9-94.4-62.1-102.7c-12.5-8.7-36.2-31.6-88.1 30.7-7.9 42.8-13.9 103.1 22 126.4z" fill="#060405"/><path d="m1702.8 549.8s-26.3 7.8-39.1 0c-13.6 11.7-5.2 38.9-48.9 25.3-3.6 19.5-26.3 60-51 3.7-1.4-23 19.2-44.6 19.2-44.6s-51.9-50.6 0-70c16 3.9 31.9 7.8 31.9 7.8s4-42.8 47.9-27.2c27.9 15.6 39.9 19.9 39.9 19.9v85.1z" fill="#050505"/></g><path d="m1974.1 788c-23 39.8-59.4 71.2-103.4 88.4l-25.2 8c-16.5 4.1-33.8 6.3-51.6 6.3-2.2 0-4.5 0-6.7-.1-41.8-1.3-80.4-14.7-112.4-36.7-6.8-4.7-13.3-9.8-19.5-15.2-27.6-41.6-54.4-93-54.4-115.7 12-35 119.7-70 119.7-70 5 29.7 29.3 46.7 51.9 40.9 16.7-4.4 29.8-21.3 31.3-41.6 3.8.2 7.7.5 11.8.8 50.1 3.4 115.7 78.3 158.5 134.9z" fill="#64d3ff"/></g><g><path d="m1594.6 1381.5c0 35.9-9.4 69.6-25.9 98.8-22.4 39.8-57.9 71.2-100.8 88.4-8 3.2-16.1 5.9-24.6 8-16.1 4.1-32.9 6.3-50.3 6.3-2.2 0-4.4 0-6.5-.1-40.7-1.3-78.4-14.7-109.6-36.7-6.6-4.7-13-9.8-19-15.2-40.8-36.9-66.4-90.2-66.4-149.5 0-111.3 90.2-201.5 201.5-201.5 111.4 0 201.6 90.2 201.6 201.5z" fill="#e4ecf9"/><g><ellipse cx="1394.5" cy="1255.1" fill="#ffa08c" rx="54.8" ry="83.2"/><path d="m1384.3 1413.4-73-44.6 20.3-89.4 77.1 24.4z" fill="#ffa08c"/><path d="m1341.7 1285.5-12.2 28.4s-65-44.7-36.5-89.3c0-20.3 4.1-44.7 8.1-44.7 4.1 0 12.2-65 150.2-36.5 28.4 16.2 54.8 52 0 69.6-40.6-1.2-83.2-18.9-83.2-18.9l-4.1 20.3-20.3 28.4z" fill="#040605"/></g><path d="m1568.7 1480.2c-23 39.8-59.4 71.2-103.4 88.4l-25.2 8c-16.5 4.1-33.8 6.3-51.6 6.3-2.2 0-4.5 0-6.7-.1-41.8-1.3-80.4-14.7-112.4-36.7-6.8-4.7-13.3-9.8-19.5-15.2-27.6-41.6-54.4-93-54.4-115.7 12-35 119.7-70 119.7-70 5 29.7 29.3 46.7 51.9 40.9 16.7-4.4 29.8-21.3 31.3-41.6 3.8.2 7.7.5 11.8.8 50.1 3.5 115.7 78.3 158.5 134.9z" fill="#fe4c40"/></g><circle cx="307.8" cy="219.5" fill="#7cd194" r="132.3"/><g><path d="m299 292.2-58.2-42.8c-3.5-2.6-4.2-7.5-1.7-10.9 2.6-3.5 7.5-4.2 10.9-1.7l44.2 32.5 69.2-118.4c2.2-3.7 7-5 10.7-2.8s5 7 2.8 10.7z" fill="#fff"/></g><g><path d="m1186.1 438.6c-2.3-4.4-7.7-6.2-12.1-3.9l-9.8 5-48.1-94.3-40.5 20.7 48.1 94.3 7.7 18.6 50.4-25.7c4.8-1.7 6.5-10.3 4.3-14.7z" fill="#d1dcf8"/><path d="m1342 351.2c-3.8-1.7-7.7-3.2-11.6-4.7-61-23.5-122.4-24.9-177.6-12.6-.7.2-1.4.3-2.1.5-1.2.3-2.4.5-3.5.8-1.3.3-2.5.6-3.7.9s-2.5.6-3.7 1c-1.4.4-2.8.7-4.1 1.1-.6.2-1.2.3-1.8.5 0 0 0 0-.1 0-23.2 6.6-45.1 15.6-65.2 26.3l-5.7 2.3-5.5 2.2-7.1-21.6-17.3 6.8-15.4 6c-5.7 2.2-12.2-.6-14.4-6.3l-6.6-16.8-14.4-36.6c-2.2-5.7.6-12.2 6.3-14.4l15.4-6 21.5-8.4-4.2-12.9c22.4-1.1 50.6-13 80-33.3 47.4-32.7 97.8-87 131.2-152.5l84.5 214.3 22.9 58z" fill="#d1dcf8"/><path d="m1150.8 334.6-11.1 2.4-71.1 27.9-11.3 4.4-1.1.4c-.7.3-1.4.5-2.2.7-7.7 1.8-15.7-2.2-18.7-9.8l-2.4-6.1-11.2-28.5-17.6-44.9c-.1-.2-.2-.5-.2-.7-2.8-8.1 1.3-17 9.3-20.1l86.9-34.1c.7-.3 1.3-.6 1.9-1l5-3.4 28.1 72.5 15.5 40z" fill="#fe4c40"/><path d="m1132.7 371.2-47 18.5c-6.8 2.7-14.6-.7-17.3-7.5l-7.9-20.2 71.8-28.2 7.9 20.2c2.7 6.7-.7 14.5-7.5 17.2z" fill="#ce3942"/><path d="m1305.8 222.3-34.1 13.4-18.8-47.8 34.1-13.4c7.6-3 16.1.8 19.1 8.3l8 20.5c3 7.5-.7 16-8.3 19z" fill="#ffd964"/><path d="m1341.5 353.4c-.7 3.6-3.2 6.7-6.9 8.2l-.8.3c-5.8 2.3-12.3-.6-14.6-6.4l-7-17.8-98.6-251.3c-2.3-5.8.6-12.3 6.4-14.6l.8-.3c5.8-2.3 12.3.6 14.6 6.4l105.6 269.1c.8 2.1 1 4.3.5 6.4z" fill="#fe4c40"/><path d="m1340.9 350.8c.4.2.7.3 1.1.4l-2.2-5.6-4.8-12.1-.8-2.4c-.1-.2-.2-.5-.4-.6l-16.9-42.7c-30.5-2.9-101.5-7-181.8 6.6-36.9 6.3-75.7 16.2-113.4 31.8-8.5 3.5-16.9 7.3-25.2 11.4l6.6 16.8c2.2 5.7 8.7 8.5 14.4 6.3l15.4-6 2.4 6.1c3 7.5 11 11.6 18.7 9.8l3.3-1.1 5.5-2.2 5.7 14.6c2.7 6.8 10.4 10.2 17.2 7.5l46.5-18.2c6.8-2.7 10.2-10.4 7.5-17.2l-5.9-15.2h.1c.6-.2 1.2-.3 1.8-.5 1.4-.4 2.7-.8 4.1-1.1 1.2-.3 2.5-.7 3.7-1s2.5-.6 3.7-.9 2.4-.6 3.5-.8c.7-.2 1.4-.3 2.1-.5 50.1-11.1 105.3-11 160.6 6.6l5.9 15c2.3 5.8 8.8 8.6 14.6 6.4l.8-.3c3.7-1.4 6.2-4.6 6.9-8.2-.1-.8-.2-1.5-.5-2.3z" fill="#0c0c0b" opacity=".11"/><path d="m1085.6 389.3s13.7 28.7 16 27.9 53.1 4.1 53.1 4.1l-22.6-50.2z" fill="#0c0c0b" opacity=".11"/><path d="m1217.3 140.5-11.1-14.2c-19.5 36.8-50.1 77.5-81.5 92.7l6.2 12.7c4.7 2.8 81.3-63.2 86.4-91.2" fill="#e6eaf4"/></g><path d="m1178.8 373.5c4.6 3.6 4.8 8.5 4.8 13.3 0 4.4-3.5 6.4-6.2 8.9 3.8 2.4 8.4 0 10.4 8.8-.1 7.3-4.3 10.9-8.7 14.3 5.5 2 11.5.9 13.9 8.2 1.7 5.3-1 11.6-6.1 14 8.2 5.7 7.8 16.5-.1 22.1-3.4 2.4-7.4 3.8-11.3 5-12.9 4.2-26.7 7.9-39.7 4.2-3.4-1-5.2-4.9-4.7-8.3.4-3.3 2.8-6 5.7-7.7 2.8-1.7 6.1-2.5 9.3-3.3-4.3 1-13.1-5.4-14.2-5.9l-.2-.1c-13-10.1-14.5-19.3-15.1-30.9-.1-2.8-.7-4.4.8-6.9 1-1.6 5.4-6.1 7.6-5.8-5.8-.9-12.4-2.7-12.1-11.4 2.4-12.9 16.2-17.7 27.2-19.8 12.2-2.5 27.8-7.3 38.7 1.3z" fill="#ffa08c"/></g></svg>