<?xml version="1.0" standalone="no"?>
<!DOCTYPE svg PUBLIC "-//W3C//DTD SVG 20010904//EN"
 "http://www.w3.org/TR/2001/REC-SVG-20010904/DTD/svg10.dtd">
<svg version="1.0" xmlns="http://www.w3.org/2000/svg"
 width="512.000000pt" height="512.000000pt" viewBox="0 0 512.000000 512.000000"
 preserveAspectRatio="xMidYMid meet">
<metadata>
Created by potrace 1.14, written by Peter Selinger 2001-2017
</metadata>
<g transform="translate(0.000000,512.000000) scale(0.100000,-0.100000)"
fill="#000000" stroke="none">
<path d="M4148 4868 c-19 -19 -21 -37 -19 -253 0 -60 -2 -118 -5 -127 -5 -16
-23 -18 -188 -18 -141 0 -187 -3 -202 -14 -17 -13 -19 -28 -20 -141 -2 -171
-15 -162 216 -163 98 0 183 -3 189 -6 5 -4 9 -76 9 -179 0 -211 -1 -192 18
-211 12 -13 40 -16 140 -16 167 0 159 -12 159 219 0 99 3 182 6 185 3 3 87 6
188 6 233 2 221 -6 221 160 0 168 11 160 -225 160 -141 0 -185 3 -186 13 -1 6
-2 92 -3 189 -2 225 7 213 -158 213 -105 1 -125 -2 -140 -17z"/>
<path d="M1110 4293 c-506 -32 -931 -397 -1035 -888 -23 -106 -23 -341 -1
-446 36 -168 107 -329 200 -452 30 -40 288 -304 573 -588 422 -420 534 -526
603 -571 188 -123 362 -177 585 -183 196 -5 350 28 522 111 493 239 741 820
572 1345 -52 164 -196 391 -275 436 -156 87 -334 -58 -277 -227 8 -24 35 -69
60 -99 147 -181 189 -398 129 -665 -13 -55 -77 -175 -130 -243 -98 -126 -279
-239 -412 -258 -22 -3 -45 -8 -53 -11 -20 -7 -179 -6 -216 1 -121 24 -204 57
-300 120 -70 47 -1022 999 -1081 1081 -48 68 -82 138 -109 229 -26 85 -27 297
-1 380 63 207 196 370 376 460 118 59 199 79 320 79 173 1 294 -39 454 -149
70 -48 92 -57 132 -59 65 -4 101 9 146 52 65 62 80 159 36 232 -59 98 -299
234 -493 280 -103 25 -237 38 -325 33z"/>
<path d="M2897 3844 c-1 -1 -35 -4 -76 -8 -159 -12 -321 -67 -471 -160 -265
-163 -459 -446 -514 -754 -14 -76 -15 -303 -2 -383 10 -64 54 -202 86 -274 41
-91 129 -223 179 -268 131 -118 330 -22 319 154 -4 48 -11 65 -61 137 -69 98
-100 163 -127 267 -22 88 -26 217 -9 310 42 230 221 449 439 538 107 43 149
51 280 51 103 0 138 -4 200 -23 92 -29 171 -68 236 -117 55 -42 969 -955 1025
-1024 62 -76 123 -193 136 -259 2 -14 6 -27 8 -31 6 -10 16 -94 19 -158 2 -31
-5 -100 -15 -152 -54 -281 -270 -507 -547 -571 -78 -18 -112 -21 -205 -16
-160 8 -280 51 -406 146 -67 50 -111 65 -169 57 -160 -22 -224 -225 -104 -332
47 -42 160 -114 240 -154 157 -78 312 -111 497 -106 232 6 424 68 619 198 139
94 300 287 375 451 33 71 77 213 87 276 20 132 16 288 -11 436 -23 122 -110
309 -200 429 -49 66 -987 1012 -1077 1087 -151 125 -367 219 -563 244 -49 6
-184 13 -188 9z"/>
</g>
</svg>
